<svg xmlns="http://www.w3.org/2000/svg" xmlns:xlink="http://www.w3.org/1999/xlink" width="712" zoomAndPan="magnify" viewBox="0 0 534 363.749991" height="485" preserveAspectRatio="xMidYMid meet" version="1.0"><defs><g/></defs><g fill="#008eb8" fill-opacity="1"><g transform="translate(150.354271, 202.07951)"><g><path d="M 43.859375 -33.625 C 44.085938 -35.125 44.757812 -36.328125 45.875 -37.234375 C 47 -38.148438 48.222656 -38.707031 49.546875 -38.90625 C 50.984375 -39.113281 52.3125 -38.898438 53.53125 -38.265625 C 54.757812 -37.640625 55.476562 -36.609375 55.6875 -35.171875 C 55.78125 -34.546875 55.75 -33.859375 55.59375 -33.109375 C 54.40625 -26.828125 52.210938 -21.625 49.015625 -17.5 C 45.828125 -13.375 42.113281 -10.195312 37.875 -7.96875 C 33.632812 -5.738281 29.316406 -4.300781 24.921875 -3.65625 C 20.328125 -2.976562 16.078125 -3.109375 12.171875 -4.046875 C 8.273438 -4.992188 5.054688 -6.675781 2.515625 -9.09375 C -0.015625 -11.507812 -1.550781 -14.578125 -2.09375 -18.296875 C -2.25 -19.359375 -2.300781 -20.472656 -2.25 -21.640625 C -2.207031 -22.804688 -2.078125 -23.988281 -1.859375 -25.1875 L 1.34375 -42.140625 C 2.28125 -47.097656 4.429688 -51.0625 7.796875 -54.03125 C 11.160156 -57 14.945312 -58.789062 19.15625 -59.40625 C 22.75 -59.9375 25.96875 -59.703125 28.8125 -58.703125 C 31.65625 -57.710938 33.988281 -56.128906 35.8125 -53.953125 C 37.644531 -51.785156 38.785156 -49.1875 39.234375 -46.15625 C 39.460938 -44.59375 39.460938 -42.828125 39.234375 -40.859375 C 38.597656 -36.453125 36.734375 -32.734375 33.640625 -29.703125 C 30.546875 -26.679688 26.859375 -24.859375 22.578125 -24.234375 C 20.691406 -23.960938 18.875 -23.972656 17.125 -24.265625 C 15.382812 -24.554688 13.757812 -25.003906 12.25 -25.609375 L 11.765625 -23.703125 C 11.628906 -23.234375 11.5625 -22.773438 11.5625 -22.328125 C 11.570312 -21.890625 11.609375 -21.445312 11.671875 -21 C 11.984375 -18.863281 13.253906 -17.203125 15.484375 -16.015625 C 17.722656 -14.828125 20.570312 -14.488281 24.03125 -15 C 26.738281 -15.394531 29.445312 -16.320312 32.15625 -17.78125 C 34.863281 -19.238281 37.28125 -21.28125 39.40625 -23.90625 C 41.53125 -26.539062 43.015625 -29.78125 43.859375 -33.625 Z M 20.5 -48.234375 C 19.4375 -48.078125 18.429688 -47.507812 17.484375 -46.53125 C 16.535156 -45.550781 15.910156 -44.304688 15.609375 -42.796875 L 14.46875 -36.84375 C 15.894531 -36.269531 17.582031 -36.128906 19.53125 -36.421875 C 20.988281 -36.628906 22.296875 -37.140625 23.453125 -37.953125 C 24.617188 -38.765625 25.3125 -40 25.53125 -41.65625 C 25.675781 -42.375 25.691406 -43.140625 25.578125 -43.953125 C 25.367188 -45.347656 24.800781 -46.457031 23.875 -47.28125 C 22.945312 -48.113281 21.820312 -48.429688 20.5 -48.234375 Z M 20.5 -48.234375 "/></g></g></g><g fill="#008eb8" fill-opacity="1"><g transform="translate(195.09667, 195.518298)"><g><path d="M 59.734375 -37.203125 C 59.953125 -38.710938 60.578125 -39.894531 61.609375 -40.75 C 62.648438 -41.613281 63.796875 -42.140625 65.046875 -42.328125 C 66.503906 -42.535156 67.859375 -42.296875 69.109375 -41.609375 C 70.367188 -40.929688 71.117188 -39.769531 71.359375 -38.125 C 71.390625 -37.882812 71.425781 -37.617188 71.46875 -37.328125 C 71.507812 -37.046875 71.492188 -36.742188 71.421875 -36.421875 C 70.984375 -32.429688 69.835938 -28.832031 67.984375 -25.625 C 66.128906 -22.425781 63.734375 -19.796875 60.796875 -17.734375 C 57.859375 -15.671875 54.535156 -14.363281 50.828125 -13.8125 C 49.441406 -13.613281 48.117188 -13.53125 46.859375 -13.5625 C 45.597656 -13.601562 44.398438 -13.765625 43.265625 -14.046875 C 40.921875 -10.679688 38.03125 -8.007812 34.59375 -6.03125 C 31.15625 -4.0625 27.644531 -2.8125 24.0625 -2.28125 C 23.226562 -2.164062 22.070312 -2.125 20.59375 -2.15625 C 19.113281 -2.1875 17.5625 -2.382812 15.9375 -2.75 C 14.3125 -3.125 12.816406 -3.796875 11.453125 -4.765625 C 10.898438 -2.878906 9.972656 -1.421875 8.671875 -0.390625 C 7.367188 0.628906 5.960938 1.25 4.453125 1.46875 C 2.367188 1.769531 0.378906 1.367188 -1.515625 0.265625 C -3.410156 -0.835938 -4.523438 -2.550781 -4.859375 -4.875 C -5.015625 -5.945312 -4.957031 -7.082031 -4.6875 -8.28125 L 9.03125 -79.15625 C 9.457031 -81.457031 10.328125 -83.15625 11.640625 -84.25 C 12.960938 -85.34375 14.410156 -86.003906 15.984375 -86.234375 C 17.742188 -86.492188 19.390625 -86.347656 20.921875 -85.796875 C 22.453125 -85.253906 23.375 -84.582031 23.6875 -83.78125 C 25.09375 -85.09375 26.523438 -86.144531 27.984375 -86.9375 C 29.441406 -87.726562 31.019531 -88.25 32.71875 -88.5 C 36.0625 -88.988281 39.378906 -88.75 42.671875 -87.78125 C 45.960938 -86.820312 48.800781 -85.113281 51.1875 -82.65625 C 53.570312 -80.207031 55.0625 -76.972656 55.65625 -72.953125 C 55.789062 -72.015625 55.828125 -70.960938 55.765625 -69.796875 C 55.710938 -68.628906 55.601562 -67.519531 55.4375 -66.46875 L 48 -25.75 C 48.320312 -25.726562 48.660156 -25.726562 49.015625 -25.75 C 49.367188 -25.769531 49.703125 -25.800781 50.015625 -25.84375 C 52.523438 -26.21875 54.640625 -27.445312 56.359375 -29.53125 C 58.078125 -31.613281 59.203125 -34.171875 59.734375 -37.203125 Z M 15.765625 -34.5 C 16.367188 -34.726562 17.015625 -34.925781 17.703125 -35.09375 C 18.390625 -35.257812 19.078125 -35.390625 19.765625 -35.484375 C 22.722656 -35.921875 25.320312 -35.851562 27.5625 -35.28125 C 29.800781 -34.707031 31.894531 -33.921875 33.84375 -32.921875 L 39.671875 -64.828125 C 39.753906 -65.546875 39.816406 -66.210938 39.859375 -66.828125 C 39.898438 -67.441406 39.878906 -68.035156 39.796875 -68.609375 C 39.492188 -70.691406 38.585938 -72.25 37.078125 -73.28125 C 35.566406 -74.3125 33.867188 -74.6875 31.984375 -74.40625 C 29.847656 -74.09375 27.765625 -73.0625 25.734375 -71.3125 C 23.710938 -69.570312 22.1875 -66.535156 21.15625 -62.203125 Z M 21.84375 -14.109375 C 23.476562 -14.347656 25.144531 -15.039062 26.84375 -16.1875 C 28.539062 -17.332031 29.914062 -18.882812 30.96875 -20.84375 C 29.601562 -21.800781 28.171875 -22.566406 26.671875 -23.140625 C 25.179688 -23.722656 23.617188 -23.894531 21.984375 -23.65625 C 20.035156 -23.363281 18.460938 -22.582031 17.265625 -21.3125 C 16.066406 -20.050781 15.582031 -18.664062 15.8125 -17.15625 C 15.96875 -16.09375 16.570312 -15.253906 17.625 -14.640625 C 18.675781 -14.023438 20.082031 -13.847656 21.84375 -14.109375 Z M 21.84375 -14.109375 "/></g></g></g><g fill="#008eb8" fill-opacity="1"><g transform="translate(255.602746, 186.645435)"><g><path d="M 50.078125 -35.3125 C 50.359375 -36.894531 51.007812 -38.113281 52.03125 -38.96875 C 53.0625 -39.832031 54.175781 -40.347656 55.375 -40.515625 C 56.820312 -40.734375 58.207031 -40.503906 59.53125 -39.828125 C 60.851562 -39.148438 61.628906 -38.054688 61.859375 -36.546875 C 61.941406 -35.972656 61.929688 -35.394531 61.828125 -34.8125 C 60.578125 -27.9375 58.769531 -22.460938 56.40625 -18.390625 C 54.039062 -14.316406 51.394531 -11.3125 48.46875 -9.375 C 45.550781 -7.4375 42.578125 -6.242188 39.546875 -5.796875 C 36.722656 -5.378906 34.03125 -5.578125 31.46875 -6.390625 C 28.90625 -7.210938 26.78125 -8.523438 25.09375 -10.328125 C 23.601562 -8.179688 21.863281 -6.335938 19.875 -4.796875 C 17.882812 -3.253906 15.472656 -2.273438 12.640625 -1.859375 C 10.003906 -1.472656 7.535156 -1.65625 5.234375 -2.40625 C 2.941406 -3.164062 1.023438 -4.425781 -0.515625 -6.1875 C -2.066406 -7.957031 -3.023438 -10.097656 -3.390625 -12.609375 C -3.628906 -14.253906 -3.59375 -15.96875 -3.28125 -17.75 L 3.0625 -51.546875 C 3.46875 -53.535156 4.238281 -55.046875 5.375 -56.078125 C 6.507812 -57.117188 7.734375 -57.734375 9.046875 -57.921875 C 10.804688 -58.179688 12.484375 -57.816406 14.078125 -56.828125 C 15.679688 -55.847656 16.625 -54.382812 16.90625 -52.4375 C 17.039062 -51.539062 16.992188 -50.539062 16.765625 -49.4375 L 10.796875 -18.46875 C 10.628906 -17.351562 10.609375 -16.351562 10.734375 -15.46875 C 10.972656 -13.894531 11.820312 -13.210938 13.28125 -13.421875 C 15.164062 -13.703125 16.910156 -14.9375 18.515625 -17.125 C 20.117188 -19.320312 21.394531 -21.804688 22.34375 -24.578125 L 28.453125 -55.09375 C 28.859375 -57.195312 29.644531 -58.769531 30.8125 -59.8125 C 31.976562 -60.851562 33.253906 -61.472656 34.640625 -61.671875 C 36.335938 -61.921875 37.960938 -61.5625 39.515625 -60.59375 C 41.078125 -59.632812 41.992188 -58.210938 42.265625 -56.328125 C 42.335938 -55.890625 42.367188 -55.460938 42.359375 -55.046875 C 42.347656 -54.628906 42.285156 -54.15625 42.171875 -53.625 L 35.5625 -20.453125 C 35.4375 -19.984375 35.410156 -19.5 35.484375 -19 C 35.578125 -18.363281 35.925781 -17.863281 36.53125 -17.5 C 37.132812 -17.144531 37.84375 -17.023438 38.65625 -17.140625 C 40.863281 -17.460938 42.988281 -19.070312 45.03125 -21.96875 C 47.082031 -24.875 48.765625 -29.320312 50.078125 -35.3125 Z M 50.078125 -35.3125 "/></g></g></g><g fill="#008eb8" fill-opacity="1"><g transform="translate(306.480706, 179.184479)"><g><path d="M 41.578125 -34.734375 C 41.867188 -36.191406 42.492188 -37.296875 43.453125 -38.046875 C 44.410156 -38.796875 45.488281 -39.257812 46.6875 -39.4375 C 48.125 -39.644531 49.519531 -39.398438 50.875 -38.703125 C 52.226562 -38.003906 53.019531 -36.898438 53.25 -35.390625 C 53.34375 -34.691406 53.304688 -34.039062 53.140625 -33.4375 C 51.960938 -27.425781 49.882812 -22.300781 46.90625 -18.0625 C 43.9375 -13.832031 40.378906 -10.5 36.234375 -8.0625 C 32.085938 -5.625 27.6875 -4.0625 23.03125 -3.375 C 18.4375 -2.695312 14.257812 -2.898438 10.5 -3.984375 C 6.738281 -5.078125 3.675781 -6.894531 1.3125 -9.4375 C -1.050781 -11.988281 -2.492188 -15.054688 -3.015625 -18.640625 C -3.335938 -20.785156 -3.285156 -23.046875 -2.859375 -25.421875 L 0.203125 -42.0625 C 0.847656 -45.5625 2.019531 -48.5 3.71875 -50.875 C 5.425781 -53.25 7.445312 -55.117188 9.78125 -56.484375 C 12.125 -57.859375 14.523438 -58.726562 16.984375 -59.09375 C 19.691406 -59.488281 22.304688 -59.304688 24.828125 -58.546875 C 27.347656 -57.796875 29.484375 -56.488281 31.234375 -54.625 C 32.984375 -52.769531 34.078125 -50.363281 34.515625 -47.40625 C 34.671875 -46.332031 34.738281 -45.195312 34.71875 -44 C 34.707031 -42.8125 34.539062 -41.550781 34.21875 -40.21875 C 33.71875 -37.957031 32.859375 -36.253906 31.640625 -35.109375 C 30.421875 -33.972656 29.117188 -33.300781 27.734375 -33.09375 C 26.097656 -32.851562 24.535156 -33.203125 23.046875 -34.140625 C 21.566406 -35.078125 20.710938 -36.363281 20.484375 -38 C 20.347656 -38.882812 20.453125 -39.867188 20.796875 -40.953125 C 21.285156 -42.429688 21.460938 -43.644531 21.328125 -44.59375 C 21.210938 -45.40625 20.878906 -46.03125 20.328125 -46.46875 C 19.773438 -46.90625 19.023438 -47.050781 18.078125 -46.90625 C 17.328125 -46.800781 16.59375 -46.359375 15.875 -45.578125 C 15.15625 -44.796875 14.660156 -43.8125 14.390625 -42.625 L 11.015625 -25.4375 C 10.816406 -24.175781 10.796875 -23.007812 10.953125 -21.9375 C 11.304688 -19.550781 12.566406 -17.664062 14.734375 -16.28125 C 16.898438 -14.894531 19.617188 -14.441406 22.890625 -14.921875 C 25.285156 -15.273438 27.71875 -16.191406 30.1875 -17.671875 C 32.664062 -19.160156 34.9375 -21.3125 37 -24.125 C 39.070312 -26.945312 40.597656 -30.484375 41.578125 -34.734375 Z M 41.578125 -34.734375 "/></g></g></g><g fill="#008eb8" fill-opacity="1"><g transform="translate(348.674491, 172.997006)"><g><path d="M 48.4375 -34.015625 C 48.65625 -35.515625 49.296875 -36.679688 50.359375 -37.515625 C 51.429688 -38.347656 52.601562 -38.859375 53.875 -39.046875 C 55.320312 -39.253906 56.710938 -39.054688 58.046875 -38.453125 C 59.390625 -37.847656 60.164062 -36.816406 60.375 -35.359375 C 60.445312 -34.921875 60.429688 -34.40625 60.328125 -33.8125 C 59.066406 -26.175781 56.53125 -19.78125 52.71875 -14.625 C 48.914062 -9.46875 43.832031 -6.425781 37.46875 -5.5 C 32.875 -4.820312 29.265625 -5.445312 26.640625 -7.375 C 24.015625 -9.300781 22.4375 -12.09375 21.90625 -15.75 C 21.539062 -18.195312 21.644531 -20.75 22.21875 -23.40625 C 22.34375 -23.9375 22.488281 -24.566406 22.65625 -25.296875 C 22.832031 -26.035156 22.773438 -26.320312 22.484375 -26.15625 C 22.078125 -25.90625 21.53125 -25.597656 20.84375 -25.234375 C 20.15625 -24.867188 19.335938 -24.617188 18.390625 -24.484375 C 17.578125 -24.359375 16.65625 -24.398438 15.625 -24.609375 C 14.601562 -24.816406 13.519531 -25.320312 12.375 -26.125 L 9.25 -7.234375 C 8.90625 -5.253906 8.015625 -3.660156 6.578125 -2.453125 C 5.148438 -1.253906 3.585938 -0.53125 1.890625 -0.28125 C 0.304688 -0.0507812 -1.175781 -0.28125 -2.5625 -0.96875 C -3.945312 -1.664062 -4.765625 -2.863281 -5.015625 -4.5625 C -5.097656 -5.132812 -5.09375 -5.8125 -5 -6.59375 L 8.59375 -78.203125 C 9.070312 -80.585938 9.863281 -82.40625 10.96875 -83.65625 C 12.070312 -84.914062 13.410156 -85.660156 14.984375 -85.890625 C 16.617188 -86.128906 18.179688 -85.765625 19.671875 -84.796875 C 21.171875 -83.828125 22.070312 -82.304688 22.375 -80.234375 C 22.457031 -79.671875 22.460938 -79.078125 22.390625 -78.453125 C 22.316406 -77.828125 22.210938 -77.148438 22.078125 -76.421875 L 18.6875 -58.671875 C 19.519531 -59.109375 20.304688 -59.410156 21.046875 -59.578125 C 21.796875 -59.753906 22.613281 -59.910156 23.5 -60.046875 C 26.257812 -60.453125 28.769531 -60.175781 31.03125 -59.21875 C 33.289062 -58.269531 35.171875 -56.84375 36.671875 -54.9375 C 38.179688 -53.039062 39.113281 -50.863281 39.46875 -48.40625 C 39.59375 -47.582031 39.640625 -46.71875 39.609375 -45.8125 C 39.585938 -44.914062 39.472656 -44.035156 39.265625 -43.171875 C 38.859375 -41.179688 38.160156 -39.484375 37.171875 -38.078125 C 36.191406 -36.679688 35.097656 -35.515625 33.890625 -34.578125 C 35.347656 -33.441406 36.253906 -31.644531 36.609375 -29.1875 C 36.785156 -27.988281 36.800781 -26.894531 36.65625 -25.90625 C 36.507812 -24.925781 36.253906 -23.28125 35.890625 -20.96875 C 35.703125 -19.976562 35.664062 -19.101562 35.78125 -18.34375 C 35.84375 -17.914062 36.039062 -17.5625 36.375 -17.28125 C 36.707031 -17.007812 37.1875 -16.921875 37.8125 -17.015625 C 40.207031 -17.367188 42.34375 -19.035156 44.21875 -22.015625 C 46.09375 -24.992188 47.5 -28.992188 48.4375 -34.015625 Z M 14.53125 -37.125 C 15.5625 -37.925781 17.023438 -38.46875 18.921875 -38.75 C 19.421875 -38.820312 19.941406 -38.863281 20.484375 -38.875 C 21.023438 -38.882812 21.585938 -38.867188 22.171875 -38.828125 C 23.265625 -39.316406 24.207031 -40.003906 25 -40.890625 C 25.800781 -41.773438 26.34375 -42.785156 26.625 -43.921875 C 26.800781 -44.523438 26.847656 -45.140625 26.765625 -45.765625 C 26.597656 -46.835938 26.078125 -47.597656 25.203125 -48.046875 C 24.328125 -48.503906 23.289062 -48.644531 22.09375 -48.46875 C 20.71875 -48.269531 19.429688 -47.628906 18.234375 -46.546875 C 17.046875 -45.472656 16.132812 -44.019531 15.5 -42.1875 Z M 14.53125 -37.125 "/></g></g></g><g fill="#ffffff" fill-opacity="1"><g transform="translate(147.679443, 199.527192)"><g><path d="M 43.859375 -33.625 C 44.085938 -35.125 44.757812 -36.328125 45.875 -37.234375 C 47 -38.148438 48.222656 -38.707031 49.546875 -38.90625 C 50.984375 -39.113281 52.3125 -38.898438 53.53125 -38.265625 C 54.757812 -37.640625 55.476562 -36.609375 55.6875 -35.171875 C 55.78125 -34.546875 55.75 -33.859375 55.59375 -33.109375 C 54.40625 -26.828125 52.210938 -21.625 49.015625 -17.5 C 45.828125 -13.375 42.113281 -10.195312 37.875 -7.96875 C 33.632812 -5.738281 29.316406 -4.300781 24.921875 -3.65625 C 20.328125 -2.976562 16.078125 -3.109375 12.171875 -4.046875 C 8.273438 -4.992188 5.054688 -6.675781 2.515625 -9.09375 C -0.015625 -11.507812 -1.550781 -14.578125 -2.09375 -18.296875 C -2.25 -19.359375 -2.300781 -20.472656 -2.25 -21.640625 C -2.207031 -22.804688 -2.078125 -23.988281 -1.859375 -25.1875 L 1.34375 -42.140625 C 2.28125 -47.097656 4.429688 -51.0625 7.796875 -54.03125 C 11.160156 -57 14.945312 -58.789062 19.15625 -59.40625 C 22.75 -59.9375 25.96875 -59.703125 28.8125 -58.703125 C 31.65625 -57.710938 33.988281 -56.128906 35.8125 -53.953125 C 37.644531 -51.785156 38.785156 -49.1875 39.234375 -46.15625 C 39.460938 -44.59375 39.460938 -42.828125 39.234375 -40.859375 C 38.597656 -36.453125 36.734375 -32.734375 33.640625 -29.703125 C 30.546875 -26.679688 26.859375 -24.859375 22.578125 -24.234375 C 20.691406 -23.960938 18.875 -23.972656 17.125 -24.265625 C 15.382812 -24.554688 13.757812 -25.003906 12.25 -25.609375 L 11.765625 -23.703125 C 11.628906 -23.234375 11.5625 -22.773438 11.5625 -22.328125 C 11.570312 -21.890625 11.609375 -21.445312 11.671875 -21 C 11.984375 -18.863281 13.253906 -17.203125 15.484375 -16.015625 C 17.722656 -14.828125 20.570312 -14.488281 24.03125 -15 C 26.738281 -15.394531 29.445312 -16.320312 32.15625 -17.78125 C 34.863281 -19.238281 37.28125 -21.28125 39.40625 -23.90625 C 41.53125 -26.539062 43.015625 -29.78125 43.859375 -33.625 Z M 20.5 -48.234375 C 19.4375 -48.078125 18.429688 -47.507812 17.484375 -46.53125 C 16.535156 -45.550781 15.910156 -44.304688 15.609375 -42.796875 L 14.46875 -36.84375 C 15.894531 -36.269531 17.582031 -36.128906 19.53125 -36.421875 C 20.988281 -36.628906 22.296875 -37.140625 23.453125 -37.953125 C 24.617188 -38.765625 25.3125 -40 25.53125 -41.65625 C 25.675781 -42.375 25.691406 -43.140625 25.578125 -43.953125 C 25.367188 -45.347656 24.800781 -46.457031 23.875 -47.28125 C 22.945312 -48.113281 21.820312 -48.429688 20.5 -48.234375 Z M 20.5 -48.234375 "/></g></g></g><g fill="#ffffff" fill-opacity="1"><g transform="translate(192.421842, 192.96598)"><g><path d="M 59.734375 -37.203125 C 59.953125 -38.710938 60.578125 -39.894531 61.609375 -40.75 C 62.648438 -41.613281 63.796875 -42.140625 65.046875 -42.328125 C 66.503906 -42.535156 67.859375 -42.296875 69.109375 -41.609375 C 70.367188 -40.929688 71.117188 -39.769531 71.359375 -38.125 C 71.390625 -37.882812 71.425781 -37.617188 71.46875 -37.328125 C 71.507812 -37.046875 71.492188 -36.742188 71.421875 -36.421875 C 70.984375 -32.429688 69.835938 -28.832031 67.984375 -25.625 C 66.128906 -22.425781 63.734375 -19.796875 60.796875 -17.734375 C 57.859375 -15.671875 54.535156 -14.363281 50.828125 -13.8125 C 49.441406 -13.613281 48.117188 -13.53125 46.859375 -13.5625 C 45.597656 -13.601562 44.398438 -13.765625 43.265625 -14.046875 C 40.921875 -10.679688 38.03125 -8.007812 34.59375 -6.03125 C 31.15625 -4.0625 27.644531 -2.8125 24.0625 -2.28125 C 23.226562 -2.164062 22.070312 -2.125 20.59375 -2.15625 C 19.113281 -2.1875 17.5625 -2.382812 15.9375 -2.75 C 14.3125 -3.125 12.816406 -3.796875 11.453125 -4.765625 C 10.898438 -2.878906 9.972656 -1.421875 8.671875 -0.390625 C 7.367188 0.628906 5.960938 1.25 4.453125 1.46875 C 2.367188 1.769531 0.378906 1.367188 -1.515625 0.265625 C -3.410156 -0.835938 -4.523438 -2.550781 -4.859375 -4.875 C -5.015625 -5.945312 -4.957031 -7.082031 -4.6875 -8.28125 L 9.03125 -79.15625 C 9.457031 -81.457031 10.328125 -83.15625 11.640625 -84.25 C 12.960938 -85.34375 14.410156 -86.003906 15.984375 -86.234375 C 17.742188 -86.492188 19.390625 -86.347656 20.921875 -85.796875 C 22.453125 -85.253906 23.375 -84.582031 23.6875 -83.78125 C 25.09375 -85.09375 26.523438 -86.144531 27.984375 -86.9375 C 29.441406 -87.726562 31.019531 -88.25 32.71875 -88.5 C 36.0625 -88.988281 39.378906 -88.75 42.671875 -87.78125 C 45.960938 -86.820312 48.800781 -85.113281 51.1875 -82.65625 C 53.570312 -80.207031 55.0625 -76.972656 55.65625 -72.953125 C 55.789062 -72.015625 55.828125 -70.960938 55.765625 -69.796875 C 55.710938 -68.628906 55.601562 -67.519531 55.4375 -66.46875 L 48 -25.75 C 48.320312 -25.726562 48.660156 -25.726562 49.015625 -25.75 C 49.367188 -25.769531 49.703125 -25.800781 50.015625 -25.84375 C 52.523438 -26.21875 54.640625 -27.445312 56.359375 -29.53125 C 58.078125 -31.613281 59.203125 -34.171875 59.734375 -37.203125 Z M 15.765625 -34.5 C 16.367188 -34.726562 17.015625 -34.925781 17.703125 -35.09375 C 18.390625 -35.257812 19.078125 -35.390625 19.765625 -35.484375 C 22.722656 -35.921875 25.320312 -35.851562 27.5625 -35.28125 C 29.800781 -34.707031 31.894531 -33.921875 33.84375 -32.921875 L 39.671875 -64.828125 C 39.753906 -65.546875 39.816406 -66.210938 39.859375 -66.828125 C 39.898438 -67.441406 39.878906 -68.035156 39.796875 -68.609375 C 39.492188 -70.691406 38.585938 -72.25 37.078125 -73.28125 C 35.566406 -74.3125 33.867188 -74.6875 31.984375 -74.40625 C 29.847656 -74.09375 27.765625 -73.0625 25.734375 -71.3125 C 23.710938 -69.570312 22.1875 -66.535156 21.15625 -62.203125 Z M 21.84375 -14.109375 C 23.476562 -14.347656 25.144531 -15.039062 26.84375 -16.1875 C 28.539062 -17.332031 29.914062 -18.882812 30.96875 -20.84375 C 29.601562 -21.800781 28.171875 -22.566406 26.671875 -23.140625 C 25.179688 -23.722656 23.617188 -23.894531 21.984375 -23.65625 C 20.035156 -23.363281 18.460938 -22.582031 17.265625 -21.3125 C 16.066406 -20.050781 15.582031 -18.664062 15.8125 -17.15625 C 15.96875 -16.09375 16.570312 -15.253906 17.625 -14.640625 C 18.675781 -14.023438 20.082031 -13.847656 21.84375 -14.109375 Z M 21.84375 -14.109375 "/></g></g></g><g fill="#ffffff" fill-opacity="1"><g transform="translate(252.927917, 184.093116)"><g><path d="M 50.078125 -35.3125 C 50.359375 -36.894531 51.007812 -38.113281 52.03125 -38.96875 C 53.0625 -39.832031 54.175781 -40.347656 55.375 -40.515625 C 56.820312 -40.734375 58.207031 -40.503906 59.53125 -39.828125 C 60.851562 -39.148438 61.628906 -38.054688 61.859375 -36.546875 C 61.941406 -35.972656 61.929688 -35.394531 61.828125 -34.8125 C 60.578125 -27.9375 58.769531 -22.460938 56.40625 -18.390625 C 54.039062 -14.316406 51.394531 -11.3125 48.46875 -9.375 C 45.550781 -7.4375 42.578125 -6.242188 39.546875 -5.796875 C 36.722656 -5.378906 34.03125 -5.578125 31.46875 -6.390625 C 28.90625 -7.210938 26.78125 -8.523438 25.09375 -10.328125 C 23.601562 -8.179688 21.863281 -6.335938 19.875 -4.796875 C 17.882812 -3.253906 15.472656 -2.273438 12.640625 -1.859375 C 10.003906 -1.472656 7.535156 -1.65625 5.234375 -2.40625 C 2.941406 -3.164062 1.023438 -4.425781 -0.515625 -6.1875 C -2.066406 -7.957031 -3.023438 -10.097656 -3.390625 -12.609375 C -3.628906 -14.253906 -3.59375 -15.96875 -3.28125 -17.75 L 3.0625 -51.546875 C 3.46875 -53.535156 4.238281 -55.046875 5.375 -56.078125 C 6.507812 -57.117188 7.734375 -57.734375 9.046875 -57.921875 C 10.804688 -58.179688 12.484375 -57.816406 14.078125 -56.828125 C 15.679688 -55.847656 16.625 -54.382812 16.90625 -52.4375 C 17.039062 -51.539062 16.992188 -50.539062 16.765625 -49.4375 L 10.796875 -18.46875 C 10.628906 -17.351562 10.609375 -16.351562 10.734375 -15.46875 C 10.972656 -13.894531 11.820312 -13.210938 13.28125 -13.421875 C 15.164062 -13.703125 16.910156 -14.9375 18.515625 -17.125 C 20.117188 -19.320312 21.394531 -21.804688 22.34375 -24.578125 L 28.453125 -55.09375 C 28.859375 -57.195312 29.644531 -58.769531 30.8125 -59.8125 C 31.976562 -60.851562 33.253906 -61.472656 34.640625 -61.671875 C 36.335938 -61.921875 37.960938 -61.5625 39.515625 -60.59375 C 41.078125 -59.632812 41.992188 -58.210938 42.265625 -56.328125 C 42.335938 -55.890625 42.367188 -55.460938 42.359375 -55.046875 C 42.347656 -54.628906 42.285156 -54.15625 42.171875 -53.625 L 35.5625 -20.453125 C 35.4375 -19.984375 35.410156 -19.5 35.484375 -19 C 35.578125 -18.363281 35.925781 -17.863281 36.53125 -17.5 C 37.132812 -17.144531 37.84375 -17.023438 38.65625 -17.140625 C 40.863281 -17.460938 42.988281 -19.070312 45.03125 -21.96875 C 47.082031 -24.875 48.765625 -29.320312 50.078125 -35.3125 Z M 50.078125 -35.3125 "/></g></g></g><g fill="#ffffff" fill-opacity="1"><g transform="translate(303.805877, 176.63216)"><g><path d="M 41.578125 -34.734375 C 41.867188 -36.191406 42.492188 -37.296875 43.453125 -38.046875 C 44.410156 -38.796875 45.488281 -39.257812 46.6875 -39.4375 C 48.125 -39.644531 49.519531 -39.398438 50.875 -38.703125 C 52.226562 -38.003906 53.019531 -36.898438 53.25 -35.390625 C 53.34375 -34.691406 53.304688 -34.039062 53.140625 -33.4375 C 51.960938 -27.425781 49.882812 -22.300781 46.90625 -18.0625 C 43.9375 -13.832031 40.378906 -10.5 36.234375 -8.0625 C 32.085938 -5.625 27.6875 -4.0625 23.03125 -3.375 C 18.4375 -2.695312 14.257812 -2.898438 10.5 -3.984375 C 6.738281 -5.078125 3.675781 -6.894531 1.3125 -9.4375 C -1.050781 -11.988281 -2.492188 -15.054688 -3.015625 -18.640625 C -3.335938 -20.785156 -3.285156 -23.046875 -2.859375 -25.421875 L 0.203125 -42.0625 C 0.847656 -45.5625 2.019531 -48.5 3.71875 -50.875 C 5.425781 -53.25 7.445312 -55.117188 9.78125 -56.484375 C 12.125 -57.859375 14.523438 -58.726562 16.984375 -59.09375 C 19.691406 -59.488281 22.304688 -59.304688 24.828125 -58.546875 C 27.347656 -57.796875 29.484375 -56.488281 31.234375 -54.625 C 32.984375 -52.769531 34.078125 -50.363281 34.515625 -47.40625 C 34.671875 -46.332031 34.738281 -45.195312 34.71875 -44 C 34.707031 -42.8125 34.539062 -41.550781 34.21875 -40.21875 C 33.71875 -37.957031 32.859375 -36.253906 31.640625 -35.109375 C 30.421875 -33.972656 29.117188 -33.300781 27.734375 -33.09375 C 26.097656 -32.851562 24.535156 -33.203125 23.046875 -34.140625 C 21.566406 -35.078125 20.710938 -36.363281 20.484375 -38 C 20.347656 -38.882812 20.453125 -39.867188 20.796875 -40.953125 C 21.285156 -42.429688 21.460938 -43.644531 21.328125 -44.59375 C 21.210938 -45.40625 20.878906 -46.03125 20.328125 -46.46875 C 19.773438 -46.90625 19.023438 -47.050781 18.078125 -46.90625 C 17.328125 -46.800781 16.59375 -46.359375 15.875 -45.578125 C 15.15625 -44.796875 14.660156 -43.8125 14.390625 -42.625 L 11.015625 -25.4375 C 10.816406 -24.175781 10.796875 -23.007812 10.953125 -21.9375 C 11.304688 -19.550781 12.566406 -17.664062 14.734375 -16.28125 C 16.898438 -14.894531 19.617188 -14.441406 22.890625 -14.921875 C 25.285156 -15.273438 27.71875 -16.191406 30.1875 -17.671875 C 32.664062 -19.160156 34.9375 -21.3125 37 -24.125 C 39.070312 -26.945312 40.597656 -30.484375 41.578125 -34.734375 Z M 41.578125 -34.734375 "/></g></g></g><g fill="#ffffff" fill-opacity="1"><g transform="translate(345.999663, 170.444688)"><g><path d="M 48.4375 -34.015625 C 48.65625 -35.515625 49.296875 -36.679688 50.359375 -37.515625 C 51.429688 -38.347656 52.601562 -38.859375 53.875 -39.046875 C 55.320312 -39.253906 56.710938 -39.054688 58.046875 -38.453125 C 59.390625 -37.847656 60.164062 -36.816406 60.375 -35.359375 C 60.445312 -34.921875 60.429688 -34.40625 60.328125 -33.8125 C 59.066406 -26.175781 56.53125 -19.78125 52.71875 -14.625 C 48.914062 -9.46875 43.832031 -6.425781 37.46875 -5.5 C 32.875 -4.820312 29.265625 -5.445312 26.640625 -7.375 C 24.015625 -9.300781 22.4375 -12.09375 21.90625 -15.75 C 21.539062 -18.195312 21.644531 -20.75 22.21875 -23.40625 C 22.34375 -23.9375 22.488281 -24.566406 22.65625 -25.296875 C 22.832031 -26.035156 22.773438 -26.320312 22.484375 -26.15625 C 22.078125 -25.90625 21.53125 -25.597656 20.84375 -25.234375 C 20.15625 -24.867188 19.335938 -24.617188 18.390625 -24.484375 C 17.578125 -24.359375 16.65625 -24.398438 15.625 -24.609375 C 14.601562 -24.816406 13.519531 -25.320312 12.375 -26.125 L 9.25 -7.234375 C 8.90625 -5.253906 8.015625 -3.660156 6.578125 -2.453125 C 5.148438 -1.253906 3.585938 -0.53125 1.890625 -0.28125 C 0.304688 -0.0507812 -1.175781 -0.28125 -2.5625 -0.96875 C -3.945312 -1.664062 -4.765625 -2.863281 -5.015625 -4.5625 C -5.097656 -5.132812 -5.09375 -5.8125 -5 -6.59375 L 8.59375 -78.203125 C 9.070312 -80.585938 9.863281 -82.40625 10.96875 -83.65625 C 12.070312 -84.914062 13.410156 -85.660156 14.984375 -85.890625 C 16.617188 -86.128906 18.179688 -85.765625 19.671875 -84.796875 C 21.171875 -83.828125 22.070312 -82.304688 22.375 -80.234375 C 22.457031 -79.671875 22.460938 -79.078125 22.390625 -78.453125 C 22.316406 -77.828125 22.210938 -77.148438 22.078125 -76.421875 L 18.6875 -58.671875 C 19.519531 -59.109375 20.304688 -59.410156 21.046875 -59.578125 C 21.796875 -59.753906 22.613281 -59.910156 23.5 -60.046875 C 26.257812 -60.453125 28.769531 -60.175781 31.03125 -59.21875 C 33.289062 -58.269531 35.171875 -56.84375 36.671875 -54.9375 C 38.179688 -53.039062 39.113281 -50.863281 39.46875 -48.40625 C 39.59375 -47.582031 39.640625 -46.71875 39.609375 -45.8125 C 39.585938 -44.914062 39.472656 -44.035156 39.265625 -43.171875 C 38.859375 -41.179688 38.160156 -39.484375 37.171875 -38.078125 C 36.191406 -36.679688 35.097656 -35.515625 33.890625 -34.578125 C 35.347656 -33.441406 36.253906 -31.644531 36.609375 -29.1875 C 36.785156 -27.988281 36.800781 -26.894531 36.65625 -25.90625 C 36.507812 -24.925781 36.253906 -23.28125 35.890625 -20.96875 C 35.703125 -19.976562 35.664062 -19.101562 35.78125 -18.34375 C 35.84375 -17.914062 36.039062 -17.5625 36.375 -17.28125 C 36.707031 -17.007812 37.1875 -16.921875 37.8125 -17.015625 C 40.207031 -17.367188 42.34375 -19.035156 44.21875 -22.015625 C 46.09375 -24.992188 47.5 -28.992188 48.4375 -34.015625 Z M 14.53125 -37.125 C 15.5625 -37.925781 17.023438 -38.46875 18.921875 -38.75 C 19.421875 -38.820312 19.941406 -38.863281 20.484375 -38.875 C 21.023438 -38.882812 21.585938 -38.867188 22.171875 -38.828125 C 23.265625 -39.316406 24.207031 -40.003906 25 -40.890625 C 25.800781 -41.773438 26.34375 -42.785156 26.625 -43.921875 C 26.800781 -44.523438 26.847656 -45.140625 26.765625 -45.765625 C 26.597656 -46.835938 26.078125 -47.597656 25.203125 -48.046875 C 24.328125 -48.503906 23.289062 -48.644531 22.09375 -48.46875 C 20.71875 -48.269531 19.429688 -47.628906 18.234375 -46.546875 C 17.046875 -45.472656 16.132812 -44.019531 15.5 -42.1875 Z M 14.53125 -37.125 "/></g></g></g><g fill="#018abc" fill-opacity="1"><g transform="translate(178.971283, 282.605405)"><g><path d="M 45.5 -35.609375 C 45.601562 -37.085938 46.140625 -38.222656 47.109375 -39.015625 C 48.085938 -39.804688 49.175781 -40.285156 50.375 -40.453125 C 51.820312 -40.671875 53.222656 -40.410156 54.578125 -39.671875 C 55.941406 -38.941406 56.742188 -37.757812 56.984375 -36.125 C 57.066406 -35.5625 57.070312 -34.890625 57 -34.109375 C 56.226562 -29.296875 54.769531 -25.078125 52.625 -21.453125 C 50.488281 -17.835938 47.925781 -14.8125 44.9375 -12.375 C 41.957031 -9.945312 38.769531 -8.015625 35.375 -6.578125 C 31.988281 -5.148438 28.664062 -4.195312 25.40625 -3.71875 C 19.914062 -2.914062 14.929688 -3.195312 10.453125 -4.5625 C 5.984375 -5.9375 2.335938 -8.148438 -0.484375 -11.203125 C -3.304688 -14.265625 -5.019531 -17.84375 -5.625 -21.9375 C -6.0625 -24.894531 -5.960938 -27.960938 -5.328125 -31.140625 L 1.515625 -66.578125 C 2.265625 -70.273438 3.382812 -73.375 4.875 -75.875 C 6.375 -78.375 8.101562 -80.378906 10.0625 -81.890625 C 12.03125 -83.398438 14.019531 -84.539062 16.03125 -85.3125 C 18.039062 -86.09375 19.894531 -86.609375 21.59375 -86.859375 C 25.175781 -87.390625 28.488281 -87.21875 31.53125 -86.34375 C 34.582031 -85.476562 37.125 -83.9375 39.15625 -81.71875 C 41.195312 -79.507812 42.46875 -76.675781 42.96875 -73.21875 C 43.113281 -72.207031 43.1875 -71.140625 43.1875 -70.015625 C 43.195312 -68.890625 43.140625 -67.679688 43.015625 -66.390625 C 42.640625 -63.179688 41.710938 -60.804688 40.234375 -59.265625 C 38.765625 -57.734375 37.210938 -56.847656 35.578125 -56.609375 C 33.742188 -56.335938 32.046875 -56.695312 30.484375 -57.6875 C 28.921875 -58.6875 28.019531 -60 27.78125 -61.625 C 27.664062 -62.394531 27.695312 -63.082031 27.875 -63.6875 C 28.351562 -65.6875 28.488281 -67.378906 28.28125 -68.765625 C 28.070312 -70.203125 27.570312 -71.203125 26.78125 -71.765625 C 26 -72.328125 25.070312 -72.53125 24 -72.375 C 23.25 -72.257812 22.394531 -71.957031 21.4375 -71.46875 C 20.476562 -70.976562 19.554688 -70.148438 18.671875 -68.984375 C 17.785156 -67.828125 17.117188 -66.15625 16.671875 -63.96875 L 9.625 -29.078125 C 9.488281 -28.222656 9.410156 -27.390625 9.390625 -26.578125 C 9.378906 -25.773438 9.425781 -25.03125 9.53125 -24.34375 C 9.832031 -22.269531 10.828125 -20.535156 12.515625 -19.140625 C 14.203125 -17.742188 16.242188 -16.753906 18.640625 -16.171875 C 21.046875 -15.597656 23.472656 -15.492188 25.921875 -15.859375 C 28.429688 -16.222656 31.023438 -17.164062 33.703125 -18.6875 C 36.378906 -20.207031 38.796875 -22.363281 40.953125 -25.15625 C 43.109375 -27.945312 44.625 -31.429688 45.5 -35.609375 Z M 45.5 -35.609375 "/></g></g></g><g fill="#018abc" fill-opacity="1"><g transform="translate(225.1301, 275.836484)"><g><path d="M 37.046875 -25.578125 C 37.234375 -25.546875 37.453125 -25.546875 37.703125 -25.578125 C 37.960938 -25.617188 38.1875 -25.65625 38.375 -25.6875 C 41.144531 -26.09375 43.445312 -27.375 45.28125 -29.53125 C 47.125 -31.695312 48.335938 -34.304688 48.921875 -37.359375 C 49.160156 -39.191406 49.820312 -40.585938 50.90625 -41.546875 C 51.988281 -42.503906 53.15625 -43.078125 54.40625 -43.265625 C 55.789062 -43.472656 57.085938 -43.179688 58.296875 -42.390625 C 59.503906 -41.609375 60.238281 -40.335938 60.5 -38.578125 C 60.613281 -37.816406 60.59375 -36.84375 60.4375 -35.65625 C 59.84375 -32.226562 58.644531 -29 56.84375 -25.96875 C 55.039062 -22.945312 52.695312 -20.398438 49.8125 -18.328125 C 46.925781 -16.265625 43.628906 -14.960938 39.921875 -14.421875 C 37.972656 -14.140625 36.050781 -14.117188 34.15625 -14.359375 C 32.707031 -10.679688 30.488281 -7.929688 27.5 -6.109375 C 24.519531 -4.285156 21.175781 -3.101562 17.46875 -2.5625 C 14.25 -2.09375 11.179688 -2.285156 8.265625 -3.140625 C 5.347656 -3.992188 2.859375 -5.492188 0.796875 -7.640625 C -1.253906 -9.785156 -2.519531 -12.492188 -3 -15.765625 C -3.15625 -16.835938 -3.21875 -17.953125 -3.1875 -19.109375 C -3.164062 -20.265625 -3.019531 -21.46875 -2.75 -22.71875 L 1.28125 -43.1875 C 1.875 -46.164062 3.0625 -48.800781 4.84375 -51.09375 C 6.632812 -53.382812 8.804688 -55.242188 11.359375 -56.671875 C 13.910156 -58.109375 16.664062 -59.039062 19.625 -59.46875 C 23.019531 -59.96875 26.179688 -59.757812 29.109375 -58.84375 C 32.046875 -57.925781 34.492188 -56.375 36.453125 -54.1875 C 38.421875 -52.007812 39.644531 -49.3125 40.125 -46.09375 C 40.300781 -44.832031 40.28125 -43.1875 40.0625 -41.15625 C 39.84375 -39.132812 39.515625 -37.175781 39.078125 -35.28125 C 38.648438 -33.382812 38.21875 -31.988281 37.78125 -31.09375 C 37.269531 -30.0625 36.738281 -29.273438 36.1875 -28.734375 C 36.507812 -27.878906 36.734375 -27.125 36.859375 -26.46875 C 36.992188 -25.820312 37.054688 -25.523438 37.046875 -25.578125 Z M 26.140625 -38.828125 C 26.296875 -39.878906 26.421875 -40.941406 26.515625 -42.015625 C 26.617188 -43.097656 26.613281 -44.050781 26.5 -44.875 C 26.332031 -45.9375 25.742188 -46.828125 24.734375 -47.546875 C 23.734375 -48.273438 22.507812 -48.535156 21.0625 -48.328125 C 19.625 -48.109375 18.242188 -47.46875 16.921875 -46.40625 C 15.597656 -45.34375 14.769531 -43.984375 14.4375 -42.328125 L 10.53125 -22.1875 C 10.414062 -21.71875 10.320312 -21.054688 10.25 -20.203125 C 10.175781 -19.359375 10.203125 -18.5 10.328125 -17.625 C 10.492188 -16.488281 10.960938 -15.492188 11.734375 -14.640625 C 12.503906 -13.785156 13.800781 -13.492188 15.625 -13.765625 C 17.082031 -13.984375 18.378906 -14.59375 19.515625 -15.59375 C 20.648438 -16.59375 21.410156 -17.957031 21.796875 -19.6875 C 20.804688 -20.300781 19.890625 -21.046875 19.046875 -21.921875 C 18.210938 -22.804688 17.648438 -24.03125 17.359375 -25.59375 C 17.085938 -27.488281 17.296875 -29.238281 17.984375 -30.84375 C 18.679688 -32.457031 19.726562 -33.765625 21.125 -34.765625 C 22.519531 -35.773438 24.082031 -36.3125 25.8125 -36.375 C 25.8125 -36.757812 25.847656 -37.148438 25.921875 -37.546875 C 26.003906 -37.953125 26.078125 -38.378906 26.140625 -38.828125 Z M 26.140625 -38.828125 "/></g></g></g><g fill="#018abc" fill-opacity="1"><g transform="translate(274.403927, 268.610765)"><g><path d="M 55.375 -40.515625 C 56.820312 -40.734375 58.203125 -40.519531 59.515625 -39.875 C 60.835938 -39.226562 61.609375 -38.175781 61.828125 -36.71875 C 61.859375 -36.476562 61.867188 -36.179688 61.859375 -35.828125 C 61.847656 -35.472656 61.800781 -35.128906 61.71875 -34.796875 C 60.539062 -28.328125 58.742188 -23.035156 56.328125 -18.921875 C 53.910156 -14.804688 51.203125 -11.691406 48.203125 -9.578125 C 45.203125 -7.460938 42.128906 -6.175781 38.984375 -5.71875 C 36.660156 -5.375 34.34375 -5.515625 32.03125 -6.140625 C 29.71875 -6.765625 27.722656 -7.757812 26.046875 -9.125 C 24.429688 -7.019531 22.515625 -5.382812 20.296875 -4.21875 C 18.085938 -3.0625 15.882812 -2.320312 13.6875 -2 C 10.976562 -1.601562 8.421875 -1.820312 6.015625 -2.65625 C 3.609375 -3.5 1.578125 -4.875 -0.078125 -6.78125 C -1.734375 -8.6875 -2.765625 -11.023438 -3.171875 -13.796875 C -3.296875 -14.679688 -3.347656 -15.59375 -3.328125 -16.53125 C -3.316406 -17.46875 -3.21875 -18.398438 -3.03125 -19.328125 L 2.203125 -46.109375 C 2.941406 -49.890625 4.644531 -52.859375 7.3125 -55.015625 C 9.988281 -57.179688 12.867188 -58.488281 15.953125 -58.9375 C 20.609375 -59.613281 24.65625 -58.535156 28.09375 -55.703125 L 33.125 -81.328125 C 33.632812 -83.898438 34.445312 -85.847656 35.5625 -87.171875 C 36.6875 -88.492188 37.976562 -89.265625 39.4375 -89.484375 C 41.070312 -89.722656 42.65625 -89.40625 44.1875 -88.53125 C 45.726562 -87.664062 46.648438 -86.226562 46.953125 -84.21875 C 47.023438 -83.71875 47.019531 -83.09375 46.9375 -82.34375 C 46.863281 -81.59375 46.769531 -80.921875 46.65625 -80.328125 L 35.5625 -21.890625 C 35.375 -20.910156 35.320312 -20.132812 35.40625 -19.5625 C 35.519531 -18.8125 35.867188 -18.1875 36.453125 -17.6875 C 37.046875 -17.195312 37.8125 -17.019531 38.75 -17.15625 C 40.894531 -17.46875 42.972656 -19.070312 44.984375 -21.96875 C 47.003906 -24.875 48.671875 -29.316406 49.984375 -35.296875 C 50.203125 -36.867188 50.835938 -38.085938 51.890625 -38.953125 C 52.953125 -39.816406 54.113281 -40.335938 55.375 -40.515625 Z M 13.640625 -16.84375 C 14.285156 -16.8125 15.054688 -17.003906 15.953125 -17.421875 C 16.859375 -17.847656 17.765625 -18.691406 18.671875 -19.953125 C 19.578125 -21.210938 20.332031 -23.078125 20.9375 -25.546875 L 23.21875 -36.953125 C 23.476562 -38.210938 23.617188 -39.3125 23.640625 -40.25 C 23.671875 -41.1875 23.632812 -42.003906 23.53125 -42.703125 C 23.289062 -44.335938 22.695312 -45.519531 21.75 -46.25 C 20.8125 -46.976562 19.90625 -47.273438 19.03125 -47.140625 C 18.257812 -47.035156 17.367188 -46.503906 16.359375 -45.546875 C 15.347656 -44.597656 14.578125 -42.671875 14.046875 -39.765625 L 10.96875 -23.21875 C 10.90625 -22.75 10.847656 -22.238281 10.796875 -21.6875 C 10.753906 -21.132812 10.78125 -20.546875 10.875 -19.921875 C 10.976562 -19.160156 11.234375 -18.488281 11.640625 -17.90625 C 12.046875 -17.332031 12.710938 -16.976562 13.640625 -16.84375 Z M 13.640625 -16.84375 "/></g></g></g><g fill="#018abc" fill-opacity="1"><g transform="translate(325.09366, 261.177412)"><g><path d="M 43.859375 -33.625 C 44.085938 -35.125 44.757812 -36.328125 45.875 -37.234375 C 47 -38.148438 48.222656 -38.707031 49.546875 -38.90625 C 50.984375 -39.113281 52.3125 -38.898438 53.53125 -38.265625 C 54.757812 -37.640625 55.476562 -36.609375 55.6875 -35.171875 C 55.78125 -34.546875 55.75 -33.859375 55.59375 -33.109375 C 54.40625 -26.828125 52.210938 -21.625 49.015625 -17.5 C 45.828125 -13.375 42.113281 -10.195312 37.875 -7.96875 C 33.632812 -5.738281 29.316406 -4.300781 24.921875 -3.65625 C 20.328125 -2.976562 16.078125 -3.109375 12.171875 -4.046875 C 8.273438 -4.992188 5.054688 -6.675781 2.515625 -9.09375 C -0.015625 -11.507812 -1.550781 -14.578125 -2.09375 -18.296875 C -2.25 -19.359375 -2.300781 -20.472656 -2.25 -21.640625 C -2.207031 -22.804688 -2.078125 -23.988281 -1.859375 -25.1875 L 1.34375 -42.140625 C 2.28125 -47.097656 4.429688 -51.0625 7.796875 -54.03125 C 11.160156 -57 14.945312 -58.789062 19.15625 -59.40625 C 22.75 -59.9375 25.96875 -59.703125 28.8125 -58.703125 C 31.65625 -57.710938 33.988281 -56.128906 35.8125 -53.953125 C 37.644531 -51.785156 38.785156 -49.1875 39.234375 -46.15625 C 39.460938 -44.59375 39.460938 -42.828125 39.234375 -40.859375 C 38.597656 -36.453125 36.734375 -32.734375 33.640625 -29.703125 C 30.546875 -26.679688 26.859375 -24.859375 22.578125 -24.234375 C 20.691406 -23.960938 18.875 -23.972656 17.125 -24.265625 C 15.382812 -24.554688 13.757812 -25.003906 12.25 -25.609375 L 11.765625 -23.703125 C 11.628906 -23.234375 11.5625 -22.773438 11.5625 -22.328125 C 11.570312 -21.890625 11.609375 -21.445312 11.671875 -21 C 11.984375 -18.863281 13.253906 -17.203125 15.484375 -16.015625 C 17.722656 -14.828125 20.570312 -14.488281 24.03125 -15 C 26.738281 -15.394531 29.445312 -16.320312 32.15625 -17.78125 C 34.863281 -19.238281 37.28125 -21.28125 39.40625 -23.90625 C 41.53125 -26.539062 43.015625 -29.78125 43.859375 -33.625 Z M 20.5 -48.234375 C 19.4375 -48.078125 18.429688 -47.507812 17.484375 -46.53125 C 16.535156 -45.550781 15.910156 -44.304688 15.609375 -42.796875 L 14.46875 -36.84375 C 15.894531 -36.269531 17.582031 -36.128906 19.53125 -36.421875 C 20.988281 -36.628906 22.296875 -37.140625 23.453125 -37.953125 C 24.617188 -38.765625 25.3125 -40 25.53125 -41.65625 C 25.675781 -42.375 25.691406 -43.140625 25.578125 -43.953125 C 25.367188 -45.347656 24.800781 -46.457031 23.875 -47.28125 C 22.945312 -48.113281 21.820312 -48.429688 20.5 -48.234375 Z M 20.5 -48.234375 "/></g></g></g><g fill="#ffffff" fill-opacity="1"><g transform="translate(176.29645, 280.053072)"><g><path d="M 45.5 -35.609375 C 45.601562 -37.085938 46.140625 -38.222656 47.109375 -39.015625 C 48.085938 -39.804688 49.175781 -40.285156 50.375 -40.453125 C 51.820312 -40.671875 53.222656 -40.410156 54.578125 -39.671875 C 55.941406 -38.941406 56.742188 -37.757812 56.984375 -36.125 C 57.066406 -35.5625 57.070312 -34.890625 57 -34.109375 C 56.226562 -29.296875 54.769531 -25.078125 52.625 -21.453125 C 50.488281 -17.835938 47.925781 -14.8125 44.9375 -12.375 C 41.957031 -9.945312 38.769531 -8.015625 35.375 -6.578125 C 31.988281 -5.148438 28.664062 -4.195312 25.40625 -3.71875 C 19.914062 -2.914062 14.929688 -3.195312 10.453125 -4.5625 C 5.984375 -5.9375 2.335938 -8.148438 -0.484375 -11.203125 C -3.304688 -14.265625 -5.019531 -17.84375 -5.625 -21.9375 C -6.0625 -24.894531 -5.960938 -27.960938 -5.328125 -31.140625 L 1.515625 -66.578125 C 2.265625 -70.273438 3.382812 -73.375 4.875 -75.875 C 6.375 -78.375 8.101562 -80.378906 10.0625 -81.890625 C 12.03125 -83.398438 14.019531 -84.539062 16.03125 -85.3125 C 18.039062 -86.09375 19.894531 -86.609375 21.59375 -86.859375 C 25.175781 -87.390625 28.488281 -87.21875 31.53125 -86.34375 C 34.582031 -85.476562 37.125 -83.9375 39.15625 -81.71875 C 41.195312 -79.507812 42.46875 -76.675781 42.96875 -73.21875 C 43.113281 -72.207031 43.1875 -71.140625 43.1875 -70.015625 C 43.195312 -68.890625 43.140625 -67.679688 43.015625 -66.390625 C 42.640625 -63.179688 41.710938 -60.804688 40.234375 -59.265625 C 38.765625 -57.734375 37.210938 -56.847656 35.578125 -56.609375 C 33.742188 -56.335938 32.046875 -56.695312 30.484375 -57.6875 C 28.921875 -58.6875 28.019531 -60 27.78125 -61.625 C 27.664062 -62.394531 27.695312 -63.082031 27.875 -63.6875 C 28.351562 -65.6875 28.488281 -67.378906 28.28125 -68.765625 C 28.070312 -70.203125 27.570312 -71.203125 26.78125 -71.765625 C 26 -72.328125 25.070312 -72.53125 24 -72.375 C 23.25 -72.257812 22.394531 -71.957031 21.4375 -71.46875 C 20.476562 -70.976562 19.554688 -70.148438 18.671875 -68.984375 C 17.785156 -67.828125 17.117188 -66.15625 16.671875 -63.96875 L 9.625 -29.078125 C 9.488281 -28.222656 9.410156 -27.390625 9.390625 -26.578125 C 9.378906 -25.773438 9.425781 -25.03125 9.53125 -24.34375 C 9.832031 -22.269531 10.828125 -20.535156 12.515625 -19.140625 C 14.203125 -17.742188 16.242188 -16.753906 18.640625 -16.171875 C 21.046875 -15.597656 23.472656 -15.492188 25.921875 -15.859375 C 28.429688 -16.222656 31.023438 -17.164062 33.703125 -18.6875 C 36.378906 -20.207031 38.796875 -22.363281 40.953125 -25.15625 C 43.109375 -27.945312 44.625 -31.429688 45.5 -35.609375 Z M 45.5 -35.609375 "/></g></g></g><g fill="#ffffff" fill-opacity="1"><g transform="translate(222.455267, 273.284151)"><g><path d="M 37.046875 -25.578125 C 37.234375 -25.546875 37.453125 -25.546875 37.703125 -25.578125 C 37.960938 -25.617188 38.1875 -25.65625 38.375 -25.6875 C 41.144531 -26.09375 43.445312 -27.375 45.28125 -29.53125 C 47.125 -31.695312 48.335938 -34.304688 48.921875 -37.359375 C 49.160156 -39.191406 49.820312 -40.585938 50.90625 -41.546875 C 51.988281 -42.503906 53.15625 -43.078125 54.40625 -43.265625 C 55.789062 -43.472656 57.085938 -43.179688 58.296875 -42.390625 C 59.503906 -41.609375 60.238281 -40.335938 60.5 -38.578125 C 60.613281 -37.816406 60.59375 -36.84375 60.4375 -35.65625 C 59.84375 -32.226562 58.644531 -29 56.84375 -25.96875 C 55.039062 -22.945312 52.695312 -20.398438 49.8125 -18.328125 C 46.925781 -16.265625 43.628906 -14.960938 39.921875 -14.421875 C 37.972656 -14.140625 36.050781 -14.117188 34.15625 -14.359375 C 32.707031 -10.679688 30.488281 -7.929688 27.5 -6.109375 C 24.519531 -4.285156 21.175781 -3.101562 17.46875 -2.5625 C 14.25 -2.09375 11.179688 -2.285156 8.265625 -3.140625 C 5.347656 -3.992188 2.859375 -5.492188 0.796875 -7.640625 C -1.253906 -9.785156 -2.519531 -12.492188 -3 -15.765625 C -3.15625 -16.835938 -3.21875 -17.953125 -3.1875 -19.109375 C -3.164062 -20.265625 -3.019531 -21.46875 -2.75 -22.71875 L 1.28125 -43.1875 C 1.875 -46.164062 3.0625 -48.800781 4.84375 -51.09375 C 6.632812 -53.382812 8.804688 -55.242188 11.359375 -56.671875 C 13.910156 -58.109375 16.664062 -59.039062 19.625 -59.46875 C 23.019531 -59.96875 26.179688 -59.757812 29.109375 -58.84375 C 32.046875 -57.925781 34.492188 -56.375 36.453125 -54.1875 C 38.421875 -52.007812 39.644531 -49.3125 40.125 -46.09375 C 40.300781 -44.832031 40.28125 -43.1875 40.0625 -41.15625 C 39.84375 -39.132812 39.515625 -37.175781 39.078125 -35.28125 C 38.648438 -33.382812 38.21875 -31.988281 37.78125 -31.09375 C 37.269531 -30.0625 36.738281 -29.273438 36.1875 -28.734375 C 36.507812 -27.878906 36.734375 -27.125 36.859375 -26.46875 C 36.992188 -25.820312 37.054688 -25.523438 37.046875 -25.578125 Z M 26.140625 -38.828125 C 26.296875 -39.878906 26.421875 -40.941406 26.515625 -42.015625 C 26.617188 -43.097656 26.613281 -44.050781 26.5 -44.875 C 26.332031 -45.9375 25.742188 -46.828125 24.734375 -47.546875 C 23.734375 -48.273438 22.507812 -48.535156 21.0625 -48.328125 C 19.625 -48.109375 18.242188 -47.46875 16.921875 -46.40625 C 15.597656 -45.34375 14.769531 -43.984375 14.4375 -42.328125 L 10.53125 -22.1875 C 10.414062 -21.71875 10.320312 -21.054688 10.25 -20.203125 C 10.175781 -19.359375 10.203125 -18.5 10.328125 -17.625 C 10.492188 -16.488281 10.960938 -15.492188 11.734375 -14.640625 C 12.503906 -13.785156 13.800781 -13.492188 15.625 -13.765625 C 17.082031 -13.984375 18.378906 -14.59375 19.515625 -15.59375 C 20.648438 -16.59375 21.410156 -17.957031 21.796875 -19.6875 C 20.804688 -20.300781 19.890625 -21.046875 19.046875 -21.921875 C 18.210938 -22.804688 17.648438 -24.03125 17.359375 -25.59375 C 17.085938 -27.488281 17.296875 -29.238281 17.984375 -30.84375 C 18.679688 -32.457031 19.726562 -33.765625 21.125 -34.765625 C 22.519531 -35.773438 24.082031 -36.3125 25.8125 -36.375 C 25.8125 -36.757812 25.847656 -37.148438 25.921875 -37.546875 C 26.003906 -37.953125 26.078125 -38.378906 26.140625 -38.828125 Z M 26.140625 -38.828125 "/></g></g></g><g fill="#ffffff" fill-opacity="1"><g transform="translate(271.729093, 266.058432)"><g><path d="M 55.375 -40.515625 C 56.820312 -40.734375 58.203125 -40.519531 59.515625 -39.875 C 60.835938 -39.226562 61.609375 -38.175781 61.828125 -36.71875 C 61.859375 -36.476562 61.867188 -36.179688 61.859375 -35.828125 C 61.847656 -35.472656 61.800781 -35.128906 61.71875 -34.796875 C 60.539062 -28.328125 58.742188 -23.035156 56.328125 -18.921875 C 53.910156 -14.804688 51.203125 -11.691406 48.203125 -9.578125 C 45.203125 -7.460938 42.128906 -6.175781 38.984375 -5.71875 C 36.660156 -5.375 34.34375 -5.515625 32.03125 -6.140625 C 29.71875 -6.765625 27.722656 -7.757812 26.046875 -9.125 C 24.429688 -7.019531 22.515625 -5.382812 20.296875 -4.21875 C 18.085938 -3.0625 15.882812 -2.320312 13.6875 -2 C 10.976562 -1.601562 8.421875 -1.820312 6.015625 -2.65625 C 3.609375 -3.5 1.578125 -4.875 -0.078125 -6.78125 C -1.734375 -8.6875 -2.765625 -11.023438 -3.171875 -13.796875 C -3.296875 -14.679688 -3.347656 -15.59375 -3.328125 -16.53125 C -3.316406 -17.46875 -3.21875 -18.398438 -3.03125 -19.328125 L 2.203125 -46.109375 C 2.941406 -49.890625 4.644531 -52.859375 7.3125 -55.015625 C 9.988281 -57.179688 12.867188 -58.488281 15.953125 -58.9375 C 20.609375 -59.613281 24.65625 -58.535156 28.09375 -55.703125 L 33.125 -81.328125 C 33.632812 -83.898438 34.445312 -85.847656 35.5625 -87.171875 C 36.6875 -88.492188 37.976562 -89.265625 39.4375 -89.484375 C 41.070312 -89.722656 42.65625 -89.40625 44.1875 -88.53125 C 45.726562 -87.664062 46.648438 -86.226562 46.953125 -84.21875 C 47.023438 -83.71875 47.019531 -83.09375 46.9375 -82.34375 C 46.863281 -81.59375 46.769531 -80.921875 46.65625 -80.328125 L 35.5625 -21.890625 C 35.375 -20.910156 35.320312 -20.132812 35.40625 -19.5625 C 35.519531 -18.8125 35.867188 -18.1875 36.453125 -17.6875 C 37.046875 -17.195312 37.8125 -17.019531 38.75 -17.15625 C 40.894531 -17.46875 42.972656 -19.070312 44.984375 -21.96875 C 47.003906 -24.875 48.671875 -29.316406 49.984375 -35.296875 C 50.203125 -36.867188 50.835938 -38.085938 51.890625 -38.953125 C 52.953125 -39.816406 54.113281 -40.335938 55.375 -40.515625 Z M 13.640625 -16.84375 C 14.285156 -16.8125 15.054688 -17.003906 15.953125 -17.421875 C 16.859375 -17.847656 17.765625 -18.691406 18.671875 -19.953125 C 19.578125 -21.210938 20.332031 -23.078125 20.9375 -25.546875 L 23.21875 -36.953125 C 23.476562 -38.210938 23.617188 -39.3125 23.640625 -40.25 C 23.671875 -41.1875 23.632812 -42.003906 23.53125 -42.703125 C 23.289062 -44.335938 22.695312 -45.519531 21.75 -46.25 C 20.8125 -46.976562 19.90625 -47.273438 19.03125 -47.140625 C 18.257812 -47.035156 17.367188 -46.503906 16.359375 -45.546875 C 15.347656 -44.597656 14.578125 -42.671875 14.046875 -39.765625 L 10.96875 -23.21875 C 10.90625 -22.75 10.847656 -22.238281 10.796875 -21.6875 C 10.753906 -21.132812 10.78125 -20.546875 10.875 -19.921875 C 10.976562 -19.160156 11.234375 -18.488281 11.640625 -17.90625 C 12.046875 -17.332031 12.710938 -16.976562 13.640625 -16.84375 Z M 13.640625 -16.84375 "/></g></g></g><g fill="#ffffff" fill-opacity="1"><g transform="translate(322.418826, 258.625079)"><g><path d="M 43.859375 -33.625 C 44.085938 -35.125 44.757812 -36.328125 45.875 -37.234375 C 47 -38.148438 48.222656 -38.707031 49.546875 -38.90625 C 50.984375 -39.113281 52.3125 -38.898438 53.53125 -38.265625 C 54.757812 -37.640625 55.476562 -36.609375 55.6875 -35.171875 C 55.78125 -34.546875 55.75 -33.859375 55.59375 -33.109375 C 54.40625 -26.828125 52.210938 -21.625 49.015625 -17.5 C 45.828125 -13.375 42.113281 -10.195312 37.875 -7.96875 C 33.632812 -5.738281 29.316406 -4.300781 24.921875 -3.65625 C 20.328125 -2.976562 16.078125 -3.109375 12.171875 -4.046875 C 8.273438 -4.992188 5.054688 -6.675781 2.515625 -9.09375 C -0.015625 -11.507812 -1.550781 -14.578125 -2.09375 -18.296875 C -2.25 -19.359375 -2.300781 -20.472656 -2.25 -21.640625 C -2.207031 -22.804688 -2.078125 -23.988281 -1.859375 -25.1875 L 1.34375 -42.140625 C 2.28125 -47.097656 4.429688 -51.0625 7.796875 -54.03125 C 11.160156 -57 14.945312 -58.789062 19.15625 -59.40625 C 22.75 -59.9375 25.96875 -59.703125 28.8125 -58.703125 C 31.65625 -57.710938 33.988281 -56.128906 35.8125 -53.953125 C 37.644531 -51.785156 38.785156 -49.1875 39.234375 -46.15625 C 39.460938 -44.59375 39.460938 -42.828125 39.234375 -40.859375 C 38.597656 -36.453125 36.734375 -32.734375 33.640625 -29.703125 C 30.546875 -26.679688 26.859375 -24.859375 22.578125 -24.234375 C 20.691406 -23.960938 18.875 -23.972656 17.125 -24.265625 C 15.382812 -24.554688 13.757812 -25.003906 12.25 -25.609375 L 11.765625 -23.703125 C 11.628906 -23.234375 11.5625 -22.773438 11.5625 -22.328125 C 11.570312 -21.890625 11.609375 -21.445312 11.671875 -21 C 11.984375 -18.863281 13.253906 -17.203125 15.484375 -16.015625 C 17.722656 -14.828125 20.570312 -14.488281 24.03125 -15 C 26.738281 -15.394531 29.445312 -16.320312 32.15625 -17.78125 C 34.863281 -19.238281 37.28125 -21.28125 39.40625 -23.90625 C 41.53125 -26.539062 43.015625 -29.78125 43.859375 -33.625 Z M 20.5 -48.234375 C 19.4375 -48.078125 18.429688 -47.507812 17.484375 -46.53125 C 16.535156 -45.550781 15.910156 -44.304688 15.609375 -42.796875 L 14.46875 -36.84375 C 15.894531 -36.269531 17.582031 -36.128906 19.53125 -36.421875 C 20.988281 -36.628906 22.296875 -37.140625 23.453125 -37.953125 C 24.617188 -38.765625 25.3125 -40 25.53125 -41.65625 C 25.675781 -42.375 25.691406 -43.140625 25.578125 -43.953125 C 25.367188 -45.347656 24.800781 -46.457031 23.875 -47.28125 C 22.945312 -48.113281 21.820312 -48.429688 20.5 -48.234375 Z M 20.5 -48.234375 "/></g></g></g></svg>